<?xml version="1.0" encoding="utf-8"?>
<!-- Generator: Adobe Illustrator 18.1.1, SVG Export Plug-In . SVG Version: 6.00 Build 0)  -->
<!DOCTYPE svg PUBLIC "-//W3C//DTD SVG 1.1//EN" "http://www.w3.org/Graphics/SVG/1.1/DTD/svg11.dtd">
<svg version="1.1" id="svg2" xmlns:svg="http://www.w3.org/2000/svg"
	 xmlns="http://www.w3.org/2000/svg" xmlns:xlink="http://www.w3.org/1999/xlink" x="0px" y="0px"
	 viewBox="-792.1 560 2024.1 834.5" enable-background="new -792.1 560 2024.1 834.5" xml:space="preserve">
<g id="layer1" transform="translate(-660.1986,-57.500893)">
	<g id="g3787" transform="matrix(4.7399215,0,0,4.7399215,-2459.0908,-558.10359)">
		<path id="path2572" d="M839.3,304.1c0.3,5.5-4.4,13.7-7.5,15.4l-2-2c3.8-4.8,2.4-13,0-14.7l0.3-1c1.7,0,5.5,0.7,7.2,1.4
			C838.2,303.8,838.6,303.8,839.3,304.1"/>
		<path id="path2574" d="M877.5,351.9c0,10.6-7.9,18.1-20.8,18.1c-5.1,0-12.3-1-15.4-2.7c0,0-0.3-0.3-0.3-2.4
			c0-4.4,0.3-12.3,0.3-13.3h3.1c0.3,1.4,0.3,3.4,1,5.5c1.7,6.1,7.2,8.2,12,8.2c5.5,0,10.2-3.8,10.2-9.6c0-4.8-2.7-7.2-9.6-12.3
			l-3.4-2.7c-8.5-6.8-12.3-12.3-12.3-19.8c0-9.2,7.2-16.4,19.5-16.4c5.1,0,10.2,1,12.3,1.4c0.7,0.3,1,0.3,1,1c0,1-0.3,6.8-0.3,13.3
			h-2.7c-1-4.1-1.4-10.9-10.9-10.9c-6.8,0-9.6,5.5-9.6,8.9c0,2.7,0.7,5.8,9.6,12.3l3.4,2.7C874.5,339.6,877.5,344.1,877.5,351.9"/>
		<path id="path2576" d="M736.8,340.7c-1,1.7-1,2-1,5.8c0,0,0,5.8,0,7.5c0,1.4,0,4.1,0.3,7.5c0.3,4.4,3.1,4.4,8.5,4.8v2.7h-28v-2.7
			c6.1,0,7.9-0.3,8.2-4.8c0.3-3.4,0.3-6.1,0.3-7.5v-8.5c0-2.7-0.7-3.8-2-6.1c-1.4-2.4-10.9-20.5-13.7-24.6c-2.4-3.8-5.1-6.8-9.9-6.8
			v-2.4h17.8c0,0,0.3,1,2.7,6.1c1,2.4,11.3,21.2,12.3,23.9l15.7-30.1h12.6v2.4c-3.8,0-5.8,1-8.9,4.8
			C749.1,316.1,739.5,335.5,736.8,340.7"/>
		<path id="path2578" d="M549.9,311.6c0,0,0,4.4,0,16.7v19.1c0,11.6,0,13.3,1.4,14.7c1.4,1.4,5.1,1.7,11.3,1.7
			c5.8,0,7.5-0.3,9.6-2.4c2-2,2.7-3.8,3.4-6.5h3.4c0,0-2,9.6-2.7,12c-0.3,1.7-0.7,2-0.7,2h-44.1v-2.7c4.4,0,6.8-0.3,7.5-4.4
			c0.3-2.7,0.3-8.9,0.3-16.4v-16.1c0-12.3,0-13.3-0.3-16.1c-0.3-4.8-2.7-5.1-7.5-5.1v-2.7h18.4V311.6"/>
		<path id="path2580" d="M698.2,335.9c0,18.8-12.3,34.5-32.8,34.5c-19.8,0-31.8-14-31.8-32.5c0-17.1,10.6-33.5,32.8-33.5
			C686.2,304.5,698.2,317.1,698.2,335.9z M685.9,338.6c0-18.1-9.2-29.4-21.9-29.4c-9.6,0-18.4,7.2-18.4,25.6
			c0,15.7,7.9,30.1,21.9,30.1C679,364.9,685.9,356,685.9,338.6"/>
		<path id="path2582" d="M828.3,335.9c0,11.3-4.4,19.5-8.9,24.3c-3.8,3.8-11.3,8.9-26.3,8.9c-9.6,0-31.4,0-31.4,0v-2.7
			c5.8-0.3,7.5-0.3,8.2-4.8c0.3-3.4,0.3-12.6,0.3-16.7v-15c0-12.3,0-13.7-0.3-16.4c-0.3-4.8-3.1-5.1-7.5-5.1v-2.7h25.3
			c10.2,0,23.6,0,32.5,9.2C824.2,319.1,828.3,325.6,828.3,335.9z M816.4,339c0-19.8-12.6-28.4-30.1-28.4c-1.7,0-3.8,0.3-4.4,0.7
			c-0.7,0.3-0.7,0.7-1,1.7c0,2.7-0.3,9.6-0.3,15.7v22.5c0,8.2,0.3,9.9,1.7,11.3c1.4,1.4,3.8,2.4,9.2,2.4
			C808.5,364.6,816.4,356,816.4,339"/>
		<path id="path2584" d="M600.1,311.6c0,0,0,4.4,0,16.7v19.1c0,11.6,0,13.3,1.4,14.7c1.4,1.4,5.1,1.7,11.3,1.7
			c5.8,0,7.5-0.3,9.6-2.4c2-2,2.4-3.8,3.4-6.5h3.4c0,0-2,9.6-2.7,12c-0.3,1.7-0.7,2-0.7,2h-44.1v-2.7c4.8,0,6.8-0.3,7.5-4.4
			c0.3-2.7,0.3-8.9,0.3-16.4v-16.1c0-12.3,0-13.3-0.3-16.1c-0.3-4.8-2.7-5.1-7.5-5.1v-2.7h18.4V311.6"/>
	</g>
</g>
</svg>
