<?xml version="1.0" encoding="UTF-8" standalone="no"?>
<!-- Created with Inkscape (http://www.inkscape.org/) -->
<svg
   xmlns:svg="http://www.w3.org/2000/svg"
   xmlns="http://www.w3.org/2000/svg"
   version="1.0"
   width="500"
   height="114.4"
   id="svg2">
  <defs
     id="defs4">
    <clipPath
       id="clipPath2722">
      <path
         d="M 0.03,841.95 L 1783.05,841.95 L 1783.05,0.03 L 0.03,0.03 L 0.03,841.95 z"
         id="path2724" />
    </clipPath>
    <clipPath
       id="clipPath2714">
      <path
         d="M 0,841.89 L 1782.992,841.89 L 1782.992,0 L 0,0 L 0,841.89 z"
         id="path2716" />
    </clipPath>
    <clipPath
       id="clipPath2706">
      <path
         d="M 240.945,590.737 L 354.331,590.737 L 354.331,465.308 L 240.945,465.308 L 240.945,590.737 z"
         id="path2708" />
    </clipPath>
    <clipPath
       id="clipPath2598">
      <path
         d="M 0.03,841.95 L 1783.05,841.95 L 1783.05,0.03 L 0.03,0.03 L 0.03,841.95 z"
         id="path2600" />
    </clipPath>
    <clipPath
       id="clipPath2590">
      <path
         d="M 0,841.89 L 1782.992,841.89 L 1782.992,0 L 0,0 L 0,841.89 z"
         id="path2592" />
    </clipPath>
    <clipPath
       id="clipPath2566">
      <path
         d="M 0.03,841.95 L 1783.05,841.95 L 1783.05,0.03 L 0.03,0.03 L 0.03,841.95 z"
         id="path2568" />
    </clipPath>
    <clipPath
       id="clipPath2558">
      <path
         d="M 0,841.89 L 1782.992,841.89 L 1782.992,0 L 0,0 L 0,841.89 z"
         id="path2560" />
    </clipPath>
    <clipPath
       id="clipPath2550">
      <path
         d="M 1074.33,850.669 L 1176.378,850.669 L 1176.378,797.729 L 1074.33,797.729 L 1074.33,850.669 z"
         id="path2552" />
    </clipPath>
    <clipPath
       id="clipPath2514">
      <path
         d="M 0.03,841.95 L 1783.05,841.95 L 1783.05,0.03 L 0.03,0.03 L 0.03,841.95 z"
         id="path2516" />
    </clipPath>
    <clipPath
       id="clipPath2506">
      <path
         d="M 0,841.89 L 1782.992,841.89 L 1782.992,0 L 0,0 L 0,841.89 z"
         id="path2508" />
    </clipPath>
    <clipPath
       id="clipPath2492">
      <path
         d="M 0.03,841.95 L 1783.05,841.95 L 1783.05,0.03 L 0.03,0.03 L 0.03,841.95 z"
         id="path2494" />
    </clipPath>
    <clipPath
       id="clipPath2484">
      <path
         d="M 0,841.89 L 1782.992,841.89 L 1782.992,0 L 0,0 L 0,841.89 z"
         id="path2486" />
    </clipPath>
    <clipPath
       id="clipPath2476">
      <path
         d="M -8.504,850.393 L 1224.567,850.393 L 1224.567,0 L -8.504,0 L -8.504,850.393 z"
         id="path2478" />
    </clipPath>
    <clipPath
       id="clipPath2466">
      <path
         d="M 0.03,841.95 L 1783.05,841.95 L 1783.05,0.03 L 0.03,0.03 L 0.03,841.95 z"
         id="path2468" />
    </clipPath>
    <clipPath
       id="clipPath2458">
      <path
         d="M 0,841.89 L 1782.992,841.89 L 1782.992,0 L 0,0 L 0,841.89 z"
         id="path2460" />
    </clipPath>
  </defs>
  <g
     transform="translate(-660.1986,-57.500893)"
     id="layer1">
    <g
       transform="matrix(4.7399215,0,0,4.7399215,-2459.0908,-558.10359)"
       id="g3787">
      <path
         d="M 750.23982,132.6111 C 750.38482,134.24735 748.97357,136.6436 748.07982,137.09985 L 747.45482,136.53235 C 748.53357,135.1536 748.11107,132.7011 747.42732,132.2411 L 747.51232,131.9861 C 747.98107,132.02735 749.12232,132.20985 749.61357,132.3536 C 749.99732,132.46485 750.03857,132.49985 750.23982,132.6111"
         id="path2572"
         style="fill:#231f20;fill-opacity:1;fill-rule:nonzero;stroke:none" />
      <path
         d="M 761.46607,146.5611 C 761.46607,149.62735 759.21232,151.84735 755.38232,151.84735 C 753.88482,151.84735 751.83107,151.53985 750.91982,151.0811 C 750.91982,151.0811 750.83732,150.94985 750.83732,150.42485 C 750.83732,149.1186 750.95232,146.85735 750.97732,146.47735 L 751.85982,146.47735 C 751.92107,146.8361 751.96482,147.4486 752.14482,148.0661 C 752.64982,149.82485 754.20107,150.4561 755.63732,150.4561 C 757.25857,150.4561 758.67857,149.35985 758.67857,147.69735 C 758.67857,146.2611 757.89107,145.6361 755.92232,144.0636 L 754.92857,143.2661 C 752.47482,141.3011 751.34982,139.6561 751.34982,137.4711 C 751.34982,134.78235 753.49607,132.66485 757.08732,132.66485 C 758.56107,132.66485 760.12357,132.95485 760.69482,133.0911 C 760.90607,133.1461 761.03607,133.18485 761.03607,133.34985 C 761.03607,133.65985 760.92232,135.3886 760.92232,137.2411 L 760.12732,137.2411 C 759.85607,136.0661 759.72982,134.0611 756.88732,134.0611 C 754.85732,134.0611 754.10232,135.62235 754.10232,136.64235 C 754.10232,137.45485 754.28357,138.29485 756.85857,140.2261 L 757.88232,140.9911 C 760.54732,142.99485 761.46607,144.2336 761.46607,146.5611"
         id="path2574"
         style="fill:#231f20;fill-opacity:1;fill-rule:nonzero;stroke:none" />
      <path
         d="M 720.26232,143.2961 C 719.98607,143.8336 719.92232,143.87485 719.92232,144.99985 C 719.92232,144.99985 719.92232,146.7186 719.92232,147.15985 C 719.92232,147.5386 719.90857,148.4036 719.97732,149.4036 C 720.07107,150.7061 720.91732,150.73485 722.45107,150.7661 L 722.45107,151.55985 L 714.29732,151.55985 L 714.29732,150.7661 C 716.05857,150.71985 716.62357,150.63485 716.71107,149.3761 C 716.78107,148.3786 716.79857,147.5961 716.79857,147.21485 L 716.79857,144.7411 C 716.79857,143.9311 716.56607,143.65235 716.17232,142.95485 C 715.80357,142.29735 712.97107,136.9736 712.13732,135.7336 C 711.41857,134.66985 710.60232,133.75985 709.20982,133.7461 L 709.20982,133.0086 L 714.43982,133.0086 C 714.43982,133.0086 714.53107,133.3236 715.23357,134.79985 C 715.57357,135.5086 718.48607,141.03235 718.87107,141.7586 L 723.50232,133.0086 L 727.22607,133.0086 L 727.22607,133.7461 C 726.14482,133.78735 725.55732,134.08235 724.66857,135.16735 C 723.88607,136.1186 721.04482,141.77235 720.26232,143.2961"
         id="path2576"
         style="fill:#231f20;fill-opacity:1;fill-rule:nonzero;stroke:none" />
      <path
         d="M 665.62482,134.7411 C 665.62482,134.7411 665.59607,136.01485 665.59607,139.62735 L 665.59607,145.25485 C 665.59607,148.64985 665.60482,149.12485 665.99482,149.51735 C 666.38982,149.90985 667.51482,150.02985 669.31857,150.02985 C 671.00732,150.02985 671.56107,149.94485 672.13107,149.3761 C 672.72982,148.77735 672.88107,148.22735 673.09857,147.4686 L 674.06357,147.4686 C 674.06357,147.4686 673.48482,150.27735 673.29607,150.96735 C 673.15357,151.4886 673.06857,151.55985 673.06857,151.55985 L 660.19857,151.55985 L 660.19857,150.7661 C 661.54732,150.74985 662.21107,150.64485 662.35732,149.4886 C 662.46107,148.6611 662.47107,146.84485 662.47107,144.6586 L 662.47107,139.9436 C 662.47107,136.3286 662.45982,136.0186 662.41357,135.25235 C 662.33232,133.89485 661.66107,133.77985 660.25357,133.7461 L 660.25357,133.0086 L 665.62482,133.0086 L 665.62482,134.7411"
         id="path2578"
         style="fill:#231f20;fill-opacity:1;fill-rule:nonzero;stroke:none" />
      <path
         d="M 708.95607,141.84485 C 708.95607,147.38485 705.33857,151.90235 699.32232,151.90235 C 693.49982,151.90235 689.97482,147.8386 689.97482,142.41235 C 689.97482,137.4561 693.04357,132.6386 699.55107,132.6386 C 705.49357,132.6386 708.95607,136.3986 708.95607,141.84485 z M 705.34732,142.69735 C 705.34732,137.3936 702.63107,134.0611 698.89732,134.0611 C 696.12857,134.0611 693.47107,136.16235 693.47107,141.5611 C 693.47107,146.13735 695.75732,150.3986 699.91857,150.3986 C 703.38607,150.3986 705.34732,147.74235 705.34732,142.69735"
         id="path2580"
         style="fill:#231f20;fill-opacity:1;fill-rule:nonzero;stroke:none" />
      <path
         d="M 747.05732,141.84485 C 747.05732,145.11235 745.79982,147.5936 744.47107,148.94735 C 743.37482,150.06485 741.14232,151.55985 736.74232,151.55985 C 733.93482,151.55985 727.56607,151.55985 727.56607,151.55985 L 727.56607,150.7661 C 729.26982,150.70735 729.78607,150.6761 729.92482,149.4036 C 730.03482,148.38985 730.00982,145.68235 730.00982,144.45735 L 730.00982,140.05485 C 730.00982,136.4436 729.99857,136.0436 729.95357,135.28235 C 729.86482,133.84735 729.01482,133.7886 727.79357,133.7461 L 727.79357,133.0086 L 735.20857,133.0086 C 738.18107,133.0086 742.13607,133.00235 744.72857,135.70985 C 745.91607,136.94735 747.05732,138.9011 747.05732,141.84485 z M 743.61732,142.7261 C 743.61732,136.9261 739.94732,134.4011 734.81232,134.4011 C 734.33482,134.4011 733.66732,134.4811 733.47607,134.5711 C 733.26232,134.6711 733.22607,134.79235 733.22107,135.05485 C 733.20107,135.8661 733.16357,137.80485 733.16357,139.68485 L 733.16357,146.2761 C 733.16357,148.70735 733.26732,149.19485 733.61857,149.54485 C 733.99857,149.9261 734.68857,150.28235 736.34482,150.28235 C 741.29357,150.28235 743.61732,147.7861 743.61732,142.7261"
         id="path2582"
         style="fill:#231f20;fill-opacity:1;fill-rule:nonzero;stroke:none" />
      <path
         d="M 680.31482,134.7411 C 680.31482,134.7411 680.28732,136.01485 680.28732,139.62735 L 680.28732,145.25485 C 680.28732,148.64985 680.29357,149.12485 680.68607,149.51735 C 681.07982,149.90985 682.20357,150.02985 684.00982,150.02985 C 685.69732,150.02985 686.25232,149.94485 686.82107,149.3761 C 687.41857,148.77735 687.56982,148.22735 687.78607,147.4686 L 688.75482,147.4686 C 688.75357,147.4686 688.17482,150.27735 687.98607,150.96735 C 687.84232,151.4886 687.75857,151.55985 687.75857,151.55985 L 674.88732,151.55985 L 674.88732,150.7661 C 676.23857,150.74985 676.90107,150.64485 677.04607,149.4886 C 677.15107,148.6611 677.16107,146.84485 677.16107,144.6586 L 677.16107,139.9436 C 677.16107,136.3286 677.14982,136.0186 677.10357,135.25235 C 677.02232,133.89485 676.34982,133.77985 674.94357,133.7461 L 674.94357,133.0086 L 680.31482,133.0086 L 680.31482,134.7411"
         id="path2584"
         style="fill:#231f20;fill-opacity:1;fill-rule:nonzero;stroke:none" />
    </g>
  </g>
</svg>
