<?xml version="1.0" encoding="utf-8"?>
<!-- Generator: Adobe Illustrator 18.1.1, SVG Export Plug-In . SVG Version: 6.00 Build 0)  -->
<!DOCTYPE svg PUBLIC "-//W3C//DTD SVG 1.1//EN" "http://www.w3.org/Graphics/SVG/1.1/DTD/svg11.dtd">
<svg version="1.1" id="svg2" xmlns:svg="http://www.w3.org/2000/svg"
	 xmlns="http://www.w3.org/2000/svg" xmlns:xlink="http://www.w3.org/1999/xlink" x="0px" y="0px" viewBox="-740 437.6 562 206.4"
	 enable-background="new -740 437.6 562 206.4" xml:space="preserve">
<g id="layer1" transform="translate(-660.1986,-57.500893)">
	<g id="g3787" transform="matrix(4.7399215,0,0,4.7399215,-2459.0908,-558.10359)">
		<path id="path2572" fill="#FFFFFF" d="M600.7,234.6c0.1,1.6-1.3,4-2.2,4.5l-0.6-0.6c1.1-1.4,0.7-3.8,0-4.3l0.1-0.3
			c0.5,0,1.6,0.2,2.1,0.4C600.4,234.5,600.5,234.5,600.7,234.6"/>
		<path id="path2574" fill="#FFFFFF" d="M611.9,248.6c0,3.1-2.3,5.3-6.1,5.3c-1.5,0-3.6-0.3-4.5-0.8c0,0-0.1-0.1-0.1-0.7
			c0-1.3,0.1-3.6,0.1-3.9h0.9c0.1,0.4,0.1,1,0.3,1.6c0.5,1.8,2.1,2.4,3.5,2.4c1.6,0,3-1.1,3-2.8c0-1.4-0.8-2.1-2.8-3.6l-1-0.8
			c-2.5-2-3.6-3.6-3.6-5.8c0-2.7,2.1-4.8,5.7-4.8c1.5,0,3,0.3,3.6,0.4c0.2,0.1,0.3,0.1,0.3,0.3c0,0.3-0.1,2-0.1,3.9h-0.8
			c-0.3-1.2-0.4-3.2-3.2-3.2c-2,0-2.8,1.6-2.8,2.6c0,0.8,0.2,1.7,2.8,3.6l1,0.8C611,245,611.9,246.3,611.9,248.6"/>
		<path id="path2576" fill="#FFFFFF" d="M570.7,245.3c-0.3,0.5-0.3,0.6-0.3,1.7c0,0,0,1.7,0,2.2c0,0.4,0,1.2,0.1,2.2
			c0.1,1.3,0.9,1.3,2.5,1.4v0.8h-8.2v-0.8c1.8,0,2.3-0.1,2.4-1.4c0.1-1,0.1-1.8,0.1-2.2v-2.5c0-0.8-0.2-1.1-0.6-1.8
			c-0.4-0.7-3.2-6-4-7.2c-0.7-1.1-1.5-2-2.9-2V235h5.2c0,0,0.1,0.3,0.8,1.8c0.3,0.7,3.3,6.2,3.6,7l4.6-8.8h3.7v0.7
			c-1.1,0-1.7,0.3-2.6,1.4C574.3,238.1,571.5,243.8,570.7,245.3"/>
		<path id="path2578" fill="#FFFFFF" d="M516,236.8c0,0,0,1.3,0,4.9v5.6c0,3.4,0,3.9,0.4,4.3c0.4,0.4,1.5,0.5,3.3,0.5
			c1.7,0,2.2-0.1,2.8-0.7c0.6-0.6,0.8-1.1,1-1.9h1c0,0-0.6,2.8-0.8,3.5c-0.1,0.5-0.2,0.6-0.2,0.6h-12.9v-0.8c1.3,0,2-0.1,2.2-1.3
			c0.1-0.8,0.1-2.6,0.1-4.8V242c0-3.6,0-3.9-0.1-4.7c-0.1-1.4-0.8-1.5-2.2-1.5V235h5.4V236.8"/>
		<path id="path2580" fill="#FFFFFF" d="M559.4,243.9c0,5.5-3.6,10.1-9.6,10.1c-5.8,0-9.3-4.1-9.3-9.5c0-5,3.1-9.8,9.6-9.8
			C555.9,234.7,559.4,238.4,559.4,243.9z M555.8,244.7c0-5.3-2.7-8.6-6.4-8.6c-2.8,0-5.4,2.1-5.4,7.5c0,4.6,2.3,8.8,6.4,8.8
			C553.8,252.4,555.8,249.8,555.8,244.7"/>
		<path id="path2582" fill="#FFFFFF" d="M597.5,243.9c0,3.3-1.3,5.7-2.6,7.1c-1.1,1.1-3.3,2.6-7.7,2.6c-2.8,0-9.2,0-9.2,0v-0.8
			c1.7-0.1,2.2-0.1,2.4-1.4c0.1-1,0.1-3.7,0.1-4.9v-4.4c0-3.6,0-4-0.1-4.8c-0.1-1.4-0.9-1.5-2.2-1.5V235h7.4c3,0,6.9,0,9.5,2.7
			C596.3,239,597.5,240.9,597.5,243.9z M594,244.8c0-5.8-3.7-8.3-8.8-8.3c-0.5,0-1.1,0.1-1.3,0.2c-0.2,0.1-0.2,0.2-0.3,0.5
			c0,0.8-0.1,2.8-0.1,4.6v6.6c0,2.4,0.1,2.9,0.5,3.3c0.4,0.4,1.1,0.7,2.7,0.7C591.7,252.3,594,249.8,594,244.8"/>
		<path id="path2584" fill="#FFFFFF" d="M530.7,236.8c0,0,0,1.3,0,4.9v5.6c0,3.4,0,3.9,0.4,4.3c0.4,0.4,1.5,0.5,3.3,0.5
			c1.7,0,2.2-0.1,2.8-0.7c0.6-0.6,0.7-1.1,1-1.9h1c0,0-0.6,2.8-0.8,3.5c-0.1,0.5-0.2,0.6-0.2,0.6h-12.9v-0.8c1.4,0,2-0.1,2.2-1.3
			c0.1-0.8,0.1-2.6,0.1-4.8V242c0-3.6,0-3.9-0.1-4.7c-0.1-1.4-0.8-1.5-2.2-1.5V235h5.4V236.8"/>
	</g>
</g>
</svg>
